<?xml version="1.0" standalone="no"?>
<!DOCTYPE svg PUBLIC "-//W3C//DTD SVG 20010904//EN"
 "http://www.w3.org/TR/2001/REC-SVG-20010904/DTD/svg10.dtd">
<svg version="1.0" xmlns="http://www.w3.org/2000/svg"
 width="1000.000000pt" height="1000.000000pt" viewBox="0 0 1000.000000 1000.000000"
 preserveAspectRatio="xMidYMid meet">
<metadata>
Created by potrace 1.16, written by Peter Selinger 2001-2019
</metadata>
<g transform="translate(0.000000,1000.000000) scale(0.100000,-0.100000)"
fill="#000000" stroke="none">
<path d="M4725 8640 c-4 -7 177 -10 534 -10 354 0 541 3 541 10 0 7 -185 10
-534 10 -346 0 -537 -4 -541 -10z"/>
<path d="M2575 5360 c-4 -6 -14 -9 -22 -6 -8 4 -11 1 -7 -5 3 -6 -9 -25 -27
-43 -40 -38 -117 -122 -176 -192 -23 -27 -50 -59 -60 -70 -10 -12 -29 -36 -43
-54 -14 -18 -31 -39 -37 -46 -7 -7 -13 -15 -13 -19 0 -3 -10 -16 -22 -29 -31
-31 -58 -65 -58 -71 0 -5 -25 -37 -47 -60 -7 -8 -13 -16 -13 -19 0 -6 -24 -36
-47 -61 -7 -8 -13 -18 -13 -24 0 -6 -4 -11 -10 -11 -5 0 -10 -7 -10 -15 0 -8
-4 -15 -10 -15 -5 0 -10 -7 -10 -15 0 -8 -4 -15 -10 -15 -5 0 -10 -7 -10 -15
0 -8 -4 -15 -10 -15 -5 0 -10 -7 -10 -15 0 -8 -4 -15 -10 -15 -5 0 -10 -7 -10
-15 0 -8 -4 -15 -10 -15 -5 0 -10 -7 -10 -15 0 -8 -4 -15 -10 -15 -5 0 -10 -7
-10 -15 0 -8 -4 -15 -10 -15 -5 0 -10 -7 -10 -15 0 -8 -4 -15 -9 -15 -5 0 -11
-8 -14 -17 -8 -24 -40 -77 -49 -81 -5 -2 -8 -10 -8 -18 0 -8 -4 -14 -10 -14
-5 0 -10 -7 -10 -15 0 -8 -4 -15 -10 -15 -5 0 -10 -7 -10 -15 0 -8 -4 -15 -8
-15 -5 0 -14 -16 -22 -35 -8 -19 -17 -35 -22 -35 -4 0 -8 -7 -8 -15 0 -8 -4
-15 -10 -15 -5 0 -10 -7 -10 -16 0 -26 28 2 50 51 10 23 26 48 35 55 8 7 15
18 15 25 0 7 7 18 15 25 9 7 25 32 35 55 10 23 26 48 35 55 8 7 15 18 15 25 0
6 9 20 20 30 11 10 20 23 20 30 0 7 9 20 20 30 11 10 20 23 20 30 0 7 9 20 20
30 11 10 20 23 20 30 0 7 9 20 20 30 11 10 20 23 20 30 0 7 9 20 20 30 11 10
20 23 20 30 0 6 14 24 30 40 17 16 30 34 30 39 1 6 19 29 40 51 22 22 40 45
40 51 0 5 14 23 30 39 17 16 30 34 30 40 0 6 23 33 50 60 28 27 50 54 50 60 0
5 36 48 80 94 44 46 80 87 80 91 0 4 23 29 51 55 28 26 48 49 46 52 -3 2 -8
-1 -12 -7z"/>
<path d="M3590 5137 c0 -8 49 -100 62 -115 8 -9 20 -30 28 -47 8 -16 23 -39
33 -49 9 -11 17 -25 17 -31 0 -6 9 -18 20 -28 11 -9 20 -23 20 -30 0 -8 9 -22
20 -32 11 -10 20 -22 20 -26 0 -4 14 -23 30 -41 17 -18 30 -38 30 -44 0 -6 9
-19 20 -29 11 -10 20 -23 20 -30 0 -7 9 -20 20 -30 11 -10 20 -23 20 -30 0 -6
14 -24 30 -40 17 -16 30 -34 30 -40 0 -6 14 -24 30 -40 17 -16 30 -32 30 -36
0 -4 22 -31 50 -60 27 -30 50 -58 50 -62 0 -11 172 -188 178 -183 2 3 -20 29
-50 59 -29 30 -69 74 -88 98 -19 23 -44 52 -55 64 -11 11 -36 41 -55 65 -19
25 -38 47 -42 48 -4 2 -8 8 -8 13 0 8 -14 27 -45 63 -5 6 -16 23 -24 39 -8 15
-18 27 -23 27 -4 0 -8 7 -8 15 0 8 -3 15 -7 15 -5 0 -24 25 -43 55 -19 30 -38
55 -42 55 -5 0 -8 7 -8 15 0 8 -4 15 -10 15 -5 0 -10 7 -10 15 0 8 -4 15 -10
15 -5 0 -10 7 -10 15 0 8 -4 15 -10 15 -5 0 -10 7 -10 15 0 8 -4 15 -10 15 -5
0 -10 7 -10 15 0 8 -4 15 -10 15 -5 0 -10 7 -10 15 0 8 -4 15 -10 15 -5 0 -10
7 -10 15 0 8 -4 15 -10 15 -5 0 -10 7 -10 15 0 8 -4 15 -8 15 -5 0 -14 16 -22
35 -8 19 -17 35 -22 35 -4 0 -8 7 -8 15 0 8 -4 15 -10 15 -5 0 -10 9 -10 20 0
11 -4 20 -10 20 -5 0 -10 7 -10 15 0 8 -4 15 -10 15 -5 0 -10 -1 -10 -3z"/>
<path d="M4623 3856 c8 -20 -26 -66 -49 -66 -6 0 -17 -7 -24 -15 -7 -9 -29
-23 -49 -32 -19 -10 -43 -25 -53 -35 -10 -10 -25 -18 -33 -18 -7 0 -18 -6 -22
-14 -4 -7 -29 -23 -55 -35 -26 -11 -50 -25 -53 -31 -3 -6 -26 -19 -50 -30 -24
-11 -47 -24 -50 -30 -3 -6 -26 -19 -50 -30 -24 -11 -47 -24 -50 -30 -3 -6 -26
-19 -50 -30 -24 -11 -47 -24 -50 -30 -3 -6 -26 -19 -50 -30 -24 -11 -46 -24
-50 -30 -3 -5 -35 -23 -70 -40 -36 -17 -65 -35 -65 -39 0 -4 -20 -16 -45 -27
-25 -10 -45 -21 -45 -26 0 -4 -39 -26 -87 -50 -49 -23 -90 -46 -91 -50 -2 -5
-37 -24 -77 -44 -41 -19 -77 -39 -80 -44 -3 -5 -43 -27 -89 -50 -86 -41 -124
-70 -92 -70 9 0 16 5 16 10 0 6 9 10 20 10 11 0 20 5 20 10 0 6 7 10 15 10 8
0 15 5 15 10 0 6 9 10 20 10 11 0 20 4 20 8 0 5 16 14 35 22 19 8 35 17 35 22
0 4 9 8 20 8 11 0 20 5 20 10 0 6 7 10 15 10 8 0 15 5 15 10 0 6 9 10 20 10
11 0 20 5 20 10 0 6 7 10 15 10 8 0 15 5 15 10 0 6 9 10 20 10 11 0 20 5 20
10 0 6 7 10 15 10 8 0 15 5 15 10 0 6 9 10 20 10 11 0 20 4 20 8 0 5 16 14 35
22 19 8 35 17 35 22 0 4 7 8 15 8 8 0 15 5 15 10 0 6 9 10 20 10 11 0 20 5 20
10 0 6 7 10 15 10 8 0 15 5 15 10 0 6 9 10 20 10 11 0 20 5 20 10 0 6 7 10 15
10 8 0 15 4 15 8 0 5 16 14 35 22 19 8 35 17 35 22 0 4 7 8 15 8 8 0 15 4 15
8 0 5 16 14 35 22 19 8 35 17 35 22 0 4 7 8 15 8 8 0 15 4 15 8 0 5 16 14 35
22 19 8 35 17 35 22 0 4 7 8 15 8 8 0 15 4 15 8 0 5 16 14 35 22 19 8 35 17
35 22 0 4 7 8 15 8 8 0 15 4 15 8 0 5 16 14 35 22 19 8 35 17 35 22 0 4 7 8
15 8 8 0 15 4 15 8 0 5 16 14 35 22 19 8 35 17 35 22 0 4 7 8 15 8 8 0 15 5
15 10 0 6 7 10 15 10 8 0 15 5 15 10 0 6 7 10 15 10 8 0 15 5 15 10 0 6 6 10
13 10 7 0 23 9 35 20 12 11 25 20 30 20 4 0 18 9 31 21 16 15 30 19 49 15 15
-3 21 -3 15 0 -7 3 -13 12 -13 21 0 8 -8 22 -17 31 -16 16 -16 16 -10 -2z"/>
<path d="M6810 3141 c0 -7 -30 -11 -80 -11 -47 0 -80 -4 -80 -10 0 -6 30 -10
70 -10 79 0 83 -6 50 -65 -11 -20 -20 -41 -20 -48 0 -16 -83 -182 -102 -205
-8 -9 -23 -35 -33 -57 -10 -22 -24 -44 -31 -48 -8 -4 -14 -14 -14 -21 0 -7
-13 -25 -30 -41 -16 -16 -30 -34 -30 -40 0 -6 -18 -29 -40 -50 -22 -21 -40
-44 -40 -49 0 -13 -262 -276 -275 -276 -6 0 -29 -18 -50 -40 -21 -22 -42 -40
-47 -40 -4 0 -26 -18 -50 -40 -24 -22 -48 -40 -54 -40 -6 0 -19 -9 -29 -20
-10 -11 -23 -20 -30 -20 -7 0 -20 -9 -30 -20 -10 -11 -23 -20 -30 -20 -7 0
-20 -9 -30 -20 -10 -11 -23 -20 -30 -20 -7 0 -20 -9 -30 -20 -10 -11 -24 -20
-30 -20 -7 0 -18 -7 -25 -15 -7 -8 -37 -27 -69 -41 -31 -15 -64 -34 -73 -42
-23 -19 -309 -162 -325 -162 -7 0 -28 -9 -48 -20 -20 -11 -44 -20 -55 -20 -10
0 -22 -4 -25 -10 -3 -5 -17 -10 -30 -10 -13 0 -27 -5 -30 -10 -3 -6 -17 -10
-30 -10 -13 0 -27 -4 -30 -10 -3 -5 -21 -10 -40 -10 -19 0 -37 -4 -40 -10 -3
-5 -21 -10 -40 -10 -19 0 -37 -4 -40 -10 -3 -5 -21 -10 -40 -10 -19 0 -37 -5
-40 -10 -3 -5 -21 -10 -40 -10 -19 0 -37 -4 -40 -10 -4 -6 10 -10 34 -10 23 0
41 5 41 10 0 6 20 10 45 10 25 0 45 5 45 10 0 6 16 10 35 10 19 0 35 5 35 10
0 6 18 10 40 10 22 0 40 5 40 10 0 6 14 10 30 10 17 0 30 5 30 10 0 6 14 10
30 10 17 0 30 5 30 10 0 6 14 10 30 10 17 0 30 5 30 10 0 6 11 10 25 10 14 0
25 5 25 10 0 6 11 10 25 10 14 0 25 5 25 10 0 6 11 10 25 10 14 0 25 5 25 10
0 6 9 10 20 10 11 0 20 5 20 10 0 6 9 10 20 10 11 0 20 5 20 10 0 6 9 10 21
10 11 0 17 5 14 10 -3 6 0 10 7 10 19 0 68 23 68 33 0 4 9 7 20 7 11 0 20 5
20 10 0 6 7 10 15 10 8 0 15 5 15 10 0 6 9 10 20 10 11 0 20 5 20 10 0 6 7 10
15 10 8 0 15 4 15 8 0 5 16 14 35 22 19 8 35 17 35 22 0 4 7 8 15 8 8 0 15 5
15 10 0 6 7 10 15 10 8 0 15 5 15 10 0 6 7 10 15 10 8 0 15 5 15 10 0 6 7 10
15 10 8 0 15 5 15 10 0 6 7 10 15 10 8 0 15 5 15 10 0 6 7 10 15 10 8 0 15 5
15 10 0 6 7 10 15 10 8 0 15 5 15 10 0 6 4 10 10 10 9 0 31 16 64 45 33 31 77
55 87 49 8 -4 9 -3 5 4 -6 10 34 62 48 62 11 0 53 38 180 166 128 128 166 169
166 180 0 3 10 15 23 28 34 36 57 65 57 74 0 4 9 14 20 22 11 8 20 20 20 27 0
7 5 13 10 13 6 0 10 7 10 15 0 8 5 15 10 15 6 0 10 7 10 15 0 8 5 15 10 15 6
0 10 9 10 20 0 11 4 20 8 20 5 0 14 16 22 35 8 19 17 35 22 35 4 0 8 9 8 20 0
11 5 20 10 20 6 0 10 9 10 20 0 11 5 20 10 20 6 0 10 9 10 20 0 11 5 20 10 20
6 0 10 11 10 25 0 14 5 25 10 25 6 0 10 11 10 24 0 14 5 28 10 31 6 3 10 17
10 30 0 13 5 25 12 27 9 3 9 6 0 12 -7 4 -12 2 -12 -3z"/>
<path d="M3090 1360 c0 -7 163 -10 470 -10 307 0 470 3 470 10 0 7 -163 10
-470 10 -307 0 -470 -3 -470 -10z"/>
</g>
</svg>
